<?xml version="1.0" encoding="us-ascii" standalone="no"?><svg xmlns="http://www.w3.org/2000/svg" xmlns:xlink="http://www.w3.org/1999/xlink" contentStyleType="text/css" height="587px" preserveAspectRatio="none" style="width:753px;height:587px;background:#FFFFFF;" version="1.1" viewBox="0 0 753 587" width="753px" zoomAndPan="magnify"><defs/><g><g id="cluster_##2"><path d="M114.8217,29.2426 C123.6782,15.0137 138.6971,13.7506 148.893,27.6183 C159.9996,6.0904 174.7188,9.325 187.7089,25.6889 C196.5644,12.4739 210.1302,12.5893 217.5581,27.2192 C228.8425,9.1813 240.5328,9.6968 252.7838,26.2345 C261.1101,9.3373 272.5507,8.6378 283.5925,23.6093 C294.1935,8.2243 312.9208,7.1423 321.6133,25.7444 C328.6704,12.3546 342.6914,12.2415 351.1391,24.1196 C362.5681,6 376.6229,7.1306 388.7801,23.3207 C400.4841,7.999 416.332,12.2722 423.3857,28.4323 C435.2479,13.7396 446.3499,12.7845 459.0582,27.4025 C466.3691,10.2099 481.6674,12.4919 489.9142,26.4763 C498.7411,9.6513 513.527,11.6164 522.7703,26.0384 C535.5087,9.7534 546.8028,9.8439 559.1358,26.4861 C574.5468,11.7948 586.0997,16.0866 595,33.7116 C595.3853,33.6841 595.5999,33.9564 595.3678,34.309 C612.282,44.5292 614.3946,56.386 599.5005,70.2623 C618.8022,81.0659 619.8446,96.9377 600.156,108.4113 C618.4738,115.7468 617.8979,132.703 603.8187,143.4273 C625.3345,154.4553 623.4923,172.6874 604.0915,183.9906 C622.9692,191.3282 623.9776,204.107 608.5447,216.1898 C625.7135,225.8972 627.7047,241.1648 611.4697,253.4916 C630.2296,262.5461 627.8041,278.5573 612.353,288.4756 C631.1181,301.4225 630.0152,320.0771 608.6453,329.3866 C622.1208,340.0374 621.3641,356.1017 605.7593,364.3524 C622.4641,374.3346 624.9403,391.2618 605.5032,400.9914 C623.4805,409.9611 620.4853,423.6823 606.449,433.5812 C622.7467,445.7843 622.3071,462.2289 601.8621,469.7756 C620.2815,482.1801 618.2858,494.8945 600.6961,506.1447 C614.9905,524.1676 611.8177,540.6165 588,546.7116 C589.656,546.4112 590.3486,547.0966 589.8239,548.7487 C580.9036,565.8307 565.7854,566.244 554.892,550.8724 C543.0877,567.6303 533.0718,565.9008 521.5806,550.5475 C514.2491,565.8144 504.9468,568.9881 491.013,558.3334 C479.1568,576.5189 468.4385,572.1794 456.6263,558.2862 C447.1152,573.0362 434.0372,576.8614 423.0073,559.8961 C411.2959,577.0866 399.0151,579.769 386.4568,560.7511 C379.9132,577.5673 364.6872,580.2929 354.3328,564.5058 C341.8627,578.1241 330.1531,574.5944 321.7035,559.8763 C308.4577,575.0225 296.3143,577.6341 284.1255,558.7104 C273.3167,572.7857 261.1578,570.8396 252.7176,556.1263 C240.0983,570.3501 227.0223,574.8528 216.0586,554.3772 C204.8093,570.7668 194.016,569.933 184.848,552.459 C175.7094,569.7978 163.5802,570.9588 151.8611,555.0168 C130.9946,568.3255 113.9688,567.1382 107,539.7116 C110.9561,539.8717 111.7823,541.8069 110.0192,545.145 C92.9281,536.7159 87.7794,519.6933 106.0963,507.5678 C92.9761,496.4164 92.8848,482.1498 109.5707,474.092 C87.3406,465.4463 82.521,445.6499 104.3129,431.5619 C87.3687,423.9182 90.6886,409.8021 102.9809,400.8888 C85.0214,389.9826 84.3904,373.0593 103.8804,363.0432 C85.867,353.6231 83.5786,335.5898 101.8813,324.296 C86.6245,316.0519 86.3789,301.2008 99.329,290.807 C82.2902,277.7579 82.5878,265.1914 100.1131,252.8565 C83.1266,239.9396 84.9135,228.0996 103.9722,219.3319 C87.9633,206.1548 88.6557,189.5068 106.6091,178.5243 C90.9153,170.3551 92.1409,156.6876 105.5355,147.5115 C90.1258,133.3472 86.787,119.8014 107.7999,107.7091 C90.3506,96.5038 90.5871,84.5833 106.636,72.2777 C84.6814,54.4696 88.3914,36.8329 114,26.7116 C115.4018,27.1927 115.7515,28.0046 114.8217,29.2426 " fill="none" style="stroke:#181818;stroke-width:1.0;"/></g><!--cluster services--><g id="cluster_services"><path d="M267.5,280.7116 L357.5,280.7116 A3.75,3.75 0 0 1 360,283.2116 L367,304.3209 L568.5,304.3209 A2.5,2.5 0 0 1 571,306.8209 L571,520.2116 A2.5,2.5 0 0 1 568.5,522.7116 L267.5,522.7116 A2.5,2.5 0 0 1 265,520.2116 L265,283.2116 A2.5,2.5 0 0 1 267.5,280.7116 " fill="none" style="stroke:#000000;stroke-width:1.5;"/><line style="stroke:#000000;stroke-width:1.5;" x1="265" x2="367" y1="304.3209" y2="304.3209"/><text fill="#000000" font-family="sans-serif" font-size="14" font-weight="bold" lengthAdjust="spacing" textLength="89" x="269" y="297.2448">MQTT Slu&#382;by</text></g><!--entity broker--><g id="elem_broker"><rect fill="#F1F1F1" height="47.6094" rx="2.5" ry="2.5" style="stroke:#181818;stroke-width:0.5;" width="126" x="115" y="450.7116"/><rect fill="#F1F1F1" height="10" style="stroke:#181818;stroke-width:0.5;" width="15" x="221" y="455.7116"/><rect fill="#F1F1F1" height="2" style="stroke:#181818;stroke-width:0.5;" width="4" x="219" y="457.7116"/><rect fill="#F1F1F1" height="2" style="stroke:#181818;stroke-width:0.5;" width="4" x="219" y="461.7116"/><text fill="#000000" font-family="sans-serif" font-size="14" lengthAdjust="spacing" textLength="86" x="130" y="485.2448">MQTT Broker</text></g><!--entity facade--><g id="elem_facade"><rect fill="#F1F1F1" height="47.6094" rx="2.5" ry="2.5" style="stroke:#181818;stroke-width:0.5;" width="88" x="340" y="34.7116"/><rect fill="#F1F1F1" height="10" style="stroke:#181818;stroke-width:0.5;" width="15" x="408" y="39.7116"/><rect fill="#F1F1F1" height="2" style="stroke:#181818;stroke-width:0.5;" width="4" x="406" y="41.7116"/><rect fill="#F1F1F1" height="2" style="stroke:#181818;stroke-width:0.5;" width="4" x="406" y="45.7116"/><text fill="#000000" font-family="sans-serif" font-size="14" lengthAdjust="spacing" textLength="48" x="355" y="69.2448">Facade</text></g><!--entity hoster--><g id="elem_hoster"><rect fill="#F1F1F1" height="47.6094" rx="2.5" ry="2.5" style="stroke:#181818;stroke-width:0.5;" width="81" x="232.5" y="160.7116"/><rect fill="#F1F1F1" height="10" style="stroke:#181818;stroke-width:0.5;" width="15" x="293.5" y="165.7116"/><rect fill="#F1F1F1" height="2" style="stroke:#181818;stroke-width:0.5;" width="4" x="291.5" y="167.7116"/><rect fill="#F1F1F1" height="2" style="stroke:#181818;stroke-width:0.5;" width="4" x="291.5" y="171.7116"/><text fill="#000000" font-family="sans-serif" font-size="14" lengthAdjust="spacing" textLength="41" x="247.5" y="195.2448">Hoster</text></g><!--entity scheduler--><g id="elem_scheduler"><rect fill="#F1F1F1" height="47.6094" rx="2.5" ry="2.5" style="stroke:#181818;stroke-width:0.5;" width="104" x="308" y="324.7116"/><rect fill="#F1F1F1" height="10" style="stroke:#181818;stroke-width:0.5;" width="15" x="392" y="329.7116"/><rect fill="#F1F1F1" height="2" style="stroke:#181818;stroke-width:0.5;" width="4" x="390" y="331.7116"/><rect fill="#F1F1F1" height="2" style="stroke:#181818;stroke-width:0.5;" width="4" x="390" y="335.7116"/><text fill="#000000" font-family="sans-serif" font-size="14" lengthAdjust="spacing" textLength="64" x="323" y="359.2448">Scheduler</text></g><!--entity renderer--><g id="elem_renderer"><rect fill="#F1F1F1" height="47.6094" rx="2.5" ry="2.5" style="stroke:#181818;stroke-width:0.5;" width="100" x="447" y="324.7116"/><rect fill="#F1F1F1" height="10" style="stroke:#181818;stroke-width:0.5;" width="15" x="527" y="329.7116"/><rect fill="#F1F1F1" height="2" style="stroke:#181818;stroke-width:0.5;" width="4" x="525" y="331.7116"/><rect fill="#F1F1F1" height="2" style="stroke:#181818;stroke-width:0.5;" width="4" x="525" y="335.7116"/><text fill="#000000" font-family="sans-serif" font-size="14" lengthAdjust="spacing" textLength="60" x="462" y="359.2448">Renderer</text></g><!--entity grouper--><g id="elem_grouper"><rect fill="#F1F1F1" height="47.6094" rx="2.5" ry="2.5" style="stroke:#181818;stroke-width:0.5;" width="93" x="301.5" y="450.7116"/><rect fill="#F1F1F1" height="10" style="stroke:#181818;stroke-width:0.5;" width="15" x="374.5" y="455.7116"/><rect fill="#F1F1F1" height="2" style="stroke:#181818;stroke-width:0.5;" width="4" x="372.5" y="457.7116"/><rect fill="#F1F1F1" height="2" style="stroke:#181818;stroke-width:0.5;" width="4" x="372.5" y="461.7116"/><text fill="#000000" font-family="sans-serif" font-size="14" lengthAdjust="spacing" textLength="53" x="316.5" y="485.2448">Grouper</text></g><!--entity compressor--><g id="elem_compressor"><rect fill="#F1F1F1" height="47.6094" rx="2.5" ry="2.5" style="stroke:#181818;stroke-width:0.5;" width="117" x="429.5" y="450.7116"/><rect fill="#F1F1F1" height="10" style="stroke:#181818;stroke-width:0.5;" width="15" x="526.5" y="455.7116"/><rect fill="#F1F1F1" height="2" style="stroke:#181818;stroke-width:0.5;" width="4" x="524.5" y="457.7116"/><rect fill="#F1F1F1" height="2" style="stroke:#181818;stroke-width:0.5;" width="4" x="524.5" y="461.7116"/><text fill="#000000" font-family="sans-serif" font-size="14" lengthAdjust="spacing" textLength="77" x="444.5" y="485.2448">Compressor</text></g><!--entity panel--><g id="elem_panel"><rect fill="#F1F1F1" height="47.6094" rx="2.5" ry="2.5" style="stroke:#181818;stroke-width:0.5;" width="76" x="7" y="324.7116"/><rect fill="#F1F1F1" height="10" style="stroke:#181818;stroke-width:0.5;" width="15" x="63" y="329.7116"/><rect fill="#F1F1F1" height="2" style="stroke:#181818;stroke-width:0.5;" width="4" x="61" y="331.7116"/><rect fill="#F1F1F1" height="2" style="stroke:#181818;stroke-width:0.5;" width="4" x="61" y="335.7116"/><text fill="#000000" font-family="sans-serif" font-size="14" lengthAdjust="spacing" textLength="36" x="22" y="359.2448">Panel</text></g><!--entity facade_client--><g id="elem_facade_client"><rect fill="#F1F1F1" height="47.6094" rx="2.5" ry="2.5" style="stroke:#181818;stroke-width:0.5;" width="128" x="619" y="160.7116"/><rect fill="#F1F1F1" height="10" style="stroke:#181818;stroke-width:0.5;" width="15" x="727" y="165.7116"/><rect fill="#F1F1F1" height="2" style="stroke:#181818;stroke-width:0.5;" width="4" x="725" y="167.7116"/><rect fill="#F1F1F1" height="2" style="stroke:#181818;stroke-width:0.5;" width="4" x="725" y="171.7116"/><text fill="#000000" font-family="sans-serif" font-size="14" lengthAdjust="spacing" textLength="88" x="634" y="195.2448">Facade Client</text></g><!--link panel to broker--><g id="link_panel_broker"><path d="M69.7,372.7416 C93.44,394.8816 124.7409,424.0606 148.5909,446.2906 " fill="none" id="panel-to-broker" style="stroke:#181818;stroke-width:1.0;"/><polygon fill="#181818" points="152.98,450.3816,149.1237,441.3191,149.3224,446.9724,143.6691,447.1712,152.98,450.3816" style="stroke:#181818;stroke-width:1.0;"/><text fill="#000000" font-family="sans-serif" font-size="13" lengthAdjust="spacing" textLength="26" x="120" y="417.2067">mqtt</text></g><!--link services to broker--><g id="link_services_broker"><path d="M264.9827,360.1748 C264.9057,360.2753 264.8281,360.3765 264.7502,360.4783 C264.4382,360.8856 264.1188,361.3024 263.7923,361.7286 C258.5684,368.5475 251.5169,377.7522 243.6888,387.9703 C228.0325,408.4066 212.9195,428.1341 199.4595,445.6991 " fill="none" id="services-to-broker" style="stroke:#181818;stroke-width:1.0;"/><polygon fill="#181818" points="195.81,450.4616,204.4592,445.7508,198.8512,446.4928,198.1092,440.8848,195.81,450.4616" style="stroke:#181818;stroke-width:1.0;"/><text fill="#000000" font-family="sans-serif" font-size="13" lengthAdjust="spacing" textLength="26" x="232" y="417.2067">mqtt</text></g><!--reverse link hoster to services--><g id="link_hoster_services"><path d="M273,214.9216 C273,225.9466 273,233.9503 273,248.7991 C273,256.2234 273,263.8591 273,271.4392 C273,273.3343 273,275.2258 273,277.1098 C273,278.0517 273,278.9918 273,279.9294 C273,280.1638 273,280.3981 273,280.6322 " fill="none" id="hoster-backto-services" style="stroke:#181818;stroke-width:1.0;"/><polygon fill="#181818" points="273,208.9216,269,217.9216,273,213.9216,277,217.9216,273,208.9216" style="stroke:#181818;stroke-width:1.0;"/><text fill="#000000" font-family="sans-serif" font-size="13" lengthAdjust="spacing" textLength="22" x="274" y="253.2067">http</text></g><!--link facade to services--><g id="link_facade_services"><path d="M379.69,82.7416 C376.76,96.8016 372.44,115.0216 367,130.7116 C346.56,189.6816 351.61,215.2116 305,256.7116 C297.85,263.0816 290.92,257.1916 285,264.7116 C282.2075,268.2578 279.9153,272.1624 278.0432,276.2864 C277.5752,277.3174 277.1334,278.3621 276.7167,279.4184 C276.6125,279.6825 276.5099,279.9473 276.4088,280.2128 C276.3582,280.3455 278.4099,274.8586 278.3602,274.9917 " fill="none" id="facade-to-services" style="stroke:#181818;stroke-width:1.0;"/><polygon fill="#181818" points="276.2583,280.6115,283.1576,273.583,278.0099,275.9283,275.6646,270.7805,276.2583,280.6115" style="stroke:#181818;stroke-width:1.0;"/><text fill="#000000" font-family="sans-serif" font-size="13" lengthAdjust="spacing" textLength="22" x="358" y="190.2067">http</text></g><!--link facade to hoster--><g id="link_facade_hoster"><path d="M363.38,82.7416 C343.57,104.8816 317.793,133.6821 297.883,155.9121 " fill="none" id="facade-to-hoster" style="stroke:#181818;stroke-width:1.0;"/><polygon fill="#181818" points="293.88,160.3816,302.8641,156.3461,297.2158,156.657,296.9049,151.0087,293.88,160.3816" style="stroke:#181818;stroke-width:1.0;"/><text fill="#000000" font-family="sans-serif" font-size="13" lengthAdjust="spacing" textLength="22" x="336" y="127.2067">http</text></g><!--reverse link facade to facade_client--><g id="link_facade_facade_client"><path d="M433.6624,80.3097 C486.6224,102.2697 569.93,136.8216 627.49,160.6916 " fill="none" id="facade-backto-facade_client" style="stroke:#181818;stroke-width:1.0;"/><polygon fill="#181818" points="428.12,78.0116,434.9015,85.1538,432.7387,79.9267,437.9657,77.7639,428.12,78.0116" style="stroke:#181818;stroke-width:1.0;"/><text fill="#000000" font-family="sans-serif" font-size="13" lengthAdjust="spacing" textLength="22" x="552" y="127.2067">http</text></g><!--SRC=[RP0x2W9144JpFaLZxWKC31JKHF2NYSWwsxhYk3FEHn3nQcRUozcUTX4qg-vNLVDHsiGIxu2udivNAnmuSoAtmSBZZcKYUwDBSjXXmrB7rtDtwpGEJ-vwLEGvdngMgg8oQidxpvJXWkhK8ip9aD7OcMY57BBEO6ZErf7t9ZFLZWa_cZkF2bMKn73FibbEZ0_ILh641y1wLjIaUMaR1PB5eJvI7Rugjeet0Ep3RhSlNu4zF5z2WFRPl-YBHPjeFZ_HAWGBkPzZhUyN_Sl8dQHLpDdn1W00]--></g></svg>