<?xml version="1.0" encoding="us-ascii" standalone="no"?><svg xmlns="http://www.w3.org/2000/svg" xmlns:xlink="http://www.w3.org/1999/xlink" contentStyleType="text/css" height="276px" preserveAspectRatio="none" style="width:443px;height:276px;background:#FFFFFF;" version="1.1" viewBox="0 0 443 276" width="443px" zoomAndPan="magnify"><defs/><g><!--entity scheduler--><g id="elem_scheduler"><rect fill="#F1F1F1" height="47.6094" rx="2.5" ry="2.5" style="stroke:#181818;stroke-width:0.5;" width="104" x="205" y="115"/><rect fill="#F1F1F1" height="10" style="stroke:#181818;stroke-width:0.5;" width="15" x="289" y="120"/><rect fill="#F1F1F1" height="2" style="stroke:#181818;stroke-width:0.5;" width="4" x="287" y="122"/><rect fill="#F1F1F1" height="2" style="stroke:#181818;stroke-width:0.5;" width="4" x="287" y="126"/><text fill="#000000" font-family="sans-serif" font-size="14" lengthAdjust="spacing" textLength="64" x="220" y="149.5332">Scheduler</text></g><!--entity grouper--><g id="elem_grouper"><rect fill="#F1F1F1" height="47.6094" rx="2.5" ry="2.5" style="stroke:#181818;stroke-width:0.5;" width="93" x="344.5" y="115"/><rect fill="#F1F1F1" height="10" style="stroke:#181818;stroke-width:0.5;" width="15" x="417.5" y="120"/><rect fill="#F1F1F1" height="2" style="stroke:#181818;stroke-width:0.5;" width="4" x="415.5" y="122"/><rect fill="#F1F1F1" height="2" style="stroke:#181818;stroke-width:0.5;" width="4" x="415.5" y="126"/><text fill="#000000" font-family="sans-serif" font-size="14" lengthAdjust="spacing" textLength="53" x="359.5" y="149.5332">Grouper</text></g><!--entity facade--><g id="elem_facade"><rect fill="#F1F1F1" height="47.6094" rx="2.5" ry="2.5" style="stroke:#181818;stroke-width:0.5;" width="88" x="213" y="7"/><rect fill="#F1F1F1" height="10" style="stroke:#181818;stroke-width:0.5;" width="15" x="281" y="12"/><rect fill="#F1F1F1" height="2" style="stroke:#181818;stroke-width:0.5;" width="4" x="279" y="14"/><rect fill="#F1F1F1" height="2" style="stroke:#181818;stroke-width:0.5;" width="4" x="279" y="18"/><text fill="#000000" font-family="sans-serif" font-size="14" lengthAdjust="spacing" textLength="48" x="228" y="41.5332">Facade</text></g><!--entity hoster--><g id="elem_hoster"><rect fill="#F1F1F1" height="47.6094" rx="2.5" ry="2.5" style="stroke:#181818;stroke-width:0.5;" width="81" x="88.5" y="115"/><rect fill="#F1F1F1" height="10" style="stroke:#181818;stroke-width:0.5;" width="15" x="149.5" y="120"/><rect fill="#F1F1F1" height="2" style="stroke:#181818;stroke-width:0.5;" width="4" x="147.5" y="122"/><rect fill="#F1F1F1" height="2" style="stroke:#181818;stroke-width:0.5;" width="4" x="147.5" y="126"/><text fill="#000000" font-family="sans-serif" font-size="14" lengthAdjust="spacing" textLength="41" x="103.5" y="149.5332">Hoster</text></g><!--entity renderer--><g id="elem_renderer"><rect fill="#F1F1F1" height="47.6094" rx="2.5" ry="2.5" style="stroke:#181818;stroke-width:0.5;" width="100" x="7" y="223"/><rect fill="#F1F1F1" height="10" style="stroke:#181818;stroke-width:0.5;" width="15" x="87" y="228"/><rect fill="#F1F1F1" height="2" style="stroke:#181818;stroke-width:0.5;" width="4" x="85" y="230"/><rect fill="#F1F1F1" height="2" style="stroke:#181818;stroke-width:0.5;" width="4" x="85" y="234"/><text fill="#000000" font-family="sans-serif" font-size="14" lengthAdjust="spacing" textLength="60" x="22" y="257.5332">Renderer</text></g><!--entity compressor--><g id="elem_compressor"><rect fill="#F1F1F1" height="47.6094" rx="2.5" ry="2.5" style="stroke:#181818;stroke-width:0.5;" width="117" x="142.5" y="223"/><rect fill="#F1F1F1" height="10" style="stroke:#181818;stroke-width:0.5;" width="15" x="239.5" y="228"/><rect fill="#F1F1F1" height="2" style="stroke:#181818;stroke-width:0.5;" width="4" x="237.5" y="230"/><rect fill="#F1F1F1" height="2" style="stroke:#181818;stroke-width:0.5;" width="4" x="237.5" y="234"/><text fill="#000000" font-family="sans-serif" font-size="14" lengthAdjust="spacing" textLength="77" x="157.5" y="257.5332">Compressor</text></g><!--link facade to scheduler--><g id="link_facade_scheduler"><path d="M257,55 C257,72.66 257,90.94 257,108.68 " fill="none" id="facade-to-scheduler" style="stroke:#181818;stroke-width:1.0;"/><polygon fill="#181818" points="257,114.68,261,105.68,257,109.68,253,105.68,257,114.68" style="stroke:#181818;stroke-width:1.0;"/></g><!--link facade to grouper--><g id="link_facade_grouper"><path d="M286.08,55 C308.4,72.66 334.384,93.218 356.814,110.958 " fill="none" id="facade-to-grouper" style="stroke:#181818;stroke-width:1.0;"/><polygon fill="#181818" points="361.52,114.68,356.9423,105.9596,357.5983,111.5783,351.9796,112.2343,361.52,114.68" style="stroke:#181818;stroke-width:1.0;"/></g><!--link facade to hoster--><g id="link_facade_hoster"><path d="M229.23,55 C207.9,72.66 183.201,93.1129 161.781,110.8529 " fill="none" id="facade-to-hoster" style="stroke:#181818;stroke-width:1.0;"/><polygon fill="#181818" points="157.16,114.68,166.6429,112.02,161.0108,111.4908,161.5401,105.8587,157.16,114.68" style="stroke:#181818;stroke-width:1.0;"/></g><!--reverse link hoster to renderer--><g id="link_hoster_renderer"><path d="M110.0078,167.9627 C98.0078,185.6227 84.89,204.94 72.84,222.68 " fill="none" id="hoster-backto-renderer" style="stroke:#181818;stroke-width:1.0;"/><polygon fill="#181818" points="113.38,163,105.0133,168.196,110.5699,167.1356,111.6302,172.6922,113.38,163" style="stroke:#181818;stroke-width:1.0;"/></g><!--reverse link hoster to compressor--><g id="link_hoster_compressor"><path d="M147.9922,167.9627 C159.9922,185.6227 173.11,204.94 185.16,222.68 " fill="none" id="hoster-backto-compressor" style="stroke:#181818;stroke-width:1.0;"/><polygon fill="#181818" points="144.62,163,146.3698,172.6922,147.4301,167.1356,152.9867,168.196,144.62,163" style="stroke:#181818;stroke-width:1.0;"/></g><!--SRC=[LOwn3iCW34HtVmK_m2zagPHcJaUh0m8d34b1Tld_I60Qkjsziyw7Bnyfb8FuRPmOwGxmoQbanNlJWBFpBb1bMvM0IvAldiKg0LVw16A5h0RmaSxC999Qu7yMe9KPQwTXmW3xW07fC-ZznfPyuxlyZry0]--></g></svg>