<?xml version="1.0" encoding="us-ascii" standalone="no"?><svg xmlns="http://www.w3.org/2000/svg" xmlns:xlink="http://www.w3.org/1999/xlink" contentStyleType="text/css" height="317px" preserveAspectRatio="none" style="width:404px;height:317px;background:#FFFFFF;" version="1.1" viewBox="0 0 404 317" width="404px" zoomAndPan="magnify"><defs/><g><!--entity scheduler--><g id="elem_scheduler"><rect fill="#F1F1F1" height="47.6094" rx="2.5" ry="2.5" style="stroke:#181818;stroke-width:0.5;" width="104" x="7" y="48.36"/><rect fill="#F1F1F1" height="10" style="stroke:#181818;stroke-width:0.5;" width="15" x="91" y="53.36"/><rect fill="#F1F1F1" height="2" style="stroke:#181818;stroke-width:0.5;" width="4" x="89" y="55.36"/><rect fill="#F1F1F1" height="2" style="stroke:#181818;stroke-width:0.5;" width="4" x="89" y="59.36"/><text fill="#000000" font-family="sans-serif" font-size="14" lengthAdjust="spacing" textLength="64" x="22" y="82.8932">Scheduler</text></g><!--entity renderer--><g id="elem_renderer"><rect fill="#F1F1F1" height="47.6094" rx="2.5" ry="2.5" style="stroke:#181818;stroke-width:0.5;" width="100" x="146" y="48.36"/><rect fill="#F1F1F1" height="10" style="stroke:#181818;stroke-width:0.5;" width="15" x="226" y="53.36"/><rect fill="#F1F1F1" height="2" style="stroke:#181818;stroke-width:0.5;" width="4" x="224" y="55.36"/><rect fill="#F1F1F1" height="2" style="stroke:#181818;stroke-width:0.5;" width="4" x="224" y="59.36"/><text fill="#000000" font-family="sans-serif" font-size="14" lengthAdjust="spacing" textLength="60" x="161" y="82.8932">Renderer</text></g><!--entity grouper--><g id="elem_grouper"><rect fill="#F1F1F1" height="47.6094" rx="2.5" ry="2.5" style="stroke:#181818;stroke-width:0.5;" width="93" x="152.5" y="156.36"/><rect fill="#F1F1F1" height="10" style="stroke:#181818;stroke-width:0.5;" width="15" x="225.5" y="161.36"/><rect fill="#F1F1F1" height="2" style="stroke:#181818;stroke-width:0.5;" width="4" x="223.5" y="163.36"/><rect fill="#F1F1F1" height="2" style="stroke:#181818;stroke-width:0.5;" width="4" x="223.5" y="167.36"/><text fill="#000000" font-family="sans-serif" font-size="14" lengthAdjust="spacing" textLength="53" x="167.5" y="190.8932">Grouper</text></g><!--entity compressor--><g id="elem_compressor"><rect fill="#F1F1F1" height="47.6094" rx="2.5" ry="2.5" style="stroke:#181818;stroke-width:0.5;" width="117" x="281.5" y="48.36"/><rect fill="#F1F1F1" height="10" style="stroke:#181818;stroke-width:0.5;" width="15" x="378.5" y="53.36"/><rect fill="#F1F1F1" height="2" style="stroke:#181818;stroke-width:0.5;" width="4" x="376.5" y="55.36"/><rect fill="#F1F1F1" height="2" style="stroke:#181818;stroke-width:0.5;" width="4" x="376.5" y="59.36"/><text fill="#000000" font-family="sans-serif" font-size="14" lengthAdjust="spacing" textLength="77" x="296.5" y="82.8932">Compressor</text></g><!--entity panel--><g id="elem_panel"><rect fill="#F1F1F1" height="47.6094" rx="2.5" ry="2.5" style="stroke:#181818;stroke-width:0.5;" width="76" x="161" y="264.36"/><rect fill="#F1F1F1" height="10" style="stroke:#181818;stroke-width:0.5;" width="15" x="217" y="269.36"/><rect fill="#F1F1F1" height="2" style="stroke:#181818;stroke-width:0.5;" width="4" x="215" y="271.36"/><rect fill="#F1F1F1" height="2" style="stroke:#181818;stroke-width:0.5;" width="4" x="215" y="275.36"/><text fill="#000000" font-family="sans-serif" font-size="14" lengthAdjust="spacing" textLength="36" x="176" y="298.8932">Panel</text></g><!--link scheduler to renderer--><g id="link_scheduler_renderer"><path d="M111.18,72.36 C122.77,72.36 128.37,72.36 139.97,72.36 " fill="none" id="scheduler-to-renderer" style="stroke:#181818;stroke-width:1.0;"/><polygon fill="#181818" points="145.97,72.36,136.97,68.36,140.97,72.36,136.97,76.36,145.97,72.36" style="stroke:#181818;stroke-width:1.0;"/></g><!--link scheduler to compressor--><g id="link_scheduler_compressor"><path d="M88.22,48.35 C104.12,36.85 124.74,24.31 145.5,18.36 C188.65,6 203.14,6.74 246.5,18.36 C268.59,24.28 285.8681,33.4911 303.1281,45.0011 " fill="none" id="scheduler-to-compressor" style="stroke:#181818;stroke-width:1.0;"/><polygon fill="#181818" points="308.12,48.33,302.8515,40.0088,303.9601,45.5559,298.413,46.6646,308.12,48.33" style="stroke:#181818;stroke-width:1.0;"/></g><!--link scheduler to grouper--><g id="link_scheduler_grouper"><path d="M89.38,96.36 C112.7,114.02 139.9865,134.6782 163.4165,152.4182 " fill="none" id="scheduler-to-grouper" style="stroke:#181818;stroke-width:1.0;"/><polygon fill="#181818" points="168.2,156.04,163.4393,147.4182,164.2137,153.0218,158.6101,153.7963,168.2,156.04" style="stroke:#181818;stroke-width:1.0;"/></g><!--link renderer to compressor--><g id="link_renderer_compressor"><path d="M246.06,72.36 C257.8,72.36 263.55,72.36 275.29,72.36 " fill="none" id="renderer-to-compressor" style="stroke:#181818;stroke-width:1.0;"/><polygon fill="#181818" points="281.29,72.36,272.29,68.36,276.29,72.36,272.29,76.36,281.29,72.36" style="stroke:#181818;stroke-width:1.0;"/></g><!--link compressor to grouper--><g id="link_compressor_grouper"><path d="M309.41,96.36 C285.92,114.02 258.4161,134.6948 234.8161,152.4348 " fill="none" id="compressor-to-grouper" style="stroke:#181818;stroke-width:1.0;"/><polygon fill="#181818" points="230.02,156.04,239.6176,153.8296,234.0167,153.0357,234.8107,147.4348,230.02,156.04" style="stroke:#181818;stroke-width:1.0;"/></g><!--link grouper to panel--><g id="link_grouper_panel"><path d="M199,204.36 C199,222.02 199,240.3 199,258.04 " fill="none" id="grouper-to-panel" style="stroke:#181818;stroke-width:1.0;"/><polygon fill="#181818" points="199,264.04,203,255.04,199,259.04,195,255.04,199,264.04" style="stroke:#181818;stroke-width:1.0;"/></g><!--SRC=[YmvEpaXDASr9BOfLI2nMA8RnkAA3KlDIKekWuaLG3bUqUr5-QG5KD1t2vefspiyjA4ejBiw7Y2V3kLpH0ObvgJbWqG8GYuiBReM2Rb5cUaQ9hXt2T2noI6PXaOMvW0jc15QD2AQ2Bh8cA0Ci27OT0000]--></g></svg>